<?xml version="1.0" encoding="utf-8"?>
<!-- Generator: Adobe Illustrator 23.1.0, SVG Export Plug-In . SVG Version: 6.00 Build 0)  -->
<svg version="1.1" xmlns="http://www.w3.org/2000/svg" xmlns:xlink="http://www.w3.org/1999/xlink" x="0px" y="0px"
	 viewBox="0 0 432 216" style="enable-background:new 0 0 432 216;" xml:space="preserve">
<style type="text/css">
	.st0{display:none;}
	.st1{display:inline;}
	.st2{font-family:'Poppins-MediumItalic';}
	.st3{font-size:50px;}
	.st4{letter-spacing:-1;}
</style>
<g id="Layer_1" class="st0">
	<text transform="matrix(1 0 0 1 116.326 120.1736)" class="st1 st2 st3 st4">trent</text>
	<text transform="matrix(1 0 0 1 -209.8353 120.4977)" class="st1" style="font-family:'Poppins-Regular'; font-size:84.6898px;">@</text>
	<g class="st1">
		<path d="M62.43,93.74c1.71-0.81,3.55-1.22,5.52-1.22c1.97,0,3.73,0.42,5.26,1.27c1.54,0.85,2.73,2.05,3.57,3.62
			c0.85,1.57,1.27,3.4,1.27,5.5c0,0.91-0.09,1.86-0.28,2.87c-0.47,2.6-1.42,4.93-2.84,6.98c-1.43,2.05-3.17,3.65-5.22,4.79
			c-2.05,1.14-4.21,1.72-6.46,1.72c-1.97,0-3.66-0.4-5.05-1.2c-1.39-0.8-2.48-1.79-3.27-2.98l-2.82,16.07h-5.36l6.72-38.21h5.36
			l-0.66,3.81C59.31,95.56,60.72,94.55,62.43,93.74z M72.51,103.84c0-2.1-0.62-3.74-1.86-4.91c-1.24-1.18-2.8-1.76-4.68-1.76
			c-1.35,0-2.69,0.35-4.02,1.03c-1.33,0.69-2.48,1.69-3.45,3.01c-0.97,1.32-1.61,2.87-1.93,4.65c-0.13,0.6-0.19,1.24-0.19,1.93
			c0,2.1,0.62,3.76,1.86,4.98c1.24,1.22,2.78,1.83,4.63,1.83c1.38,0,2.73-0.35,4.07-1.06c1.33-0.71,2.48-1.73,3.45-3.08
			c0.97-1.35,1.61-2.91,1.93-4.7C72.45,105.18,72.51,104.53,72.51,103.84z"/>
	</g>
	<text transform="matrix(1 0 0 1 -99.6976 118.8367)" class="st1 st2" style="font-size:47px;">p</text>
	<path class="st1" d="M104.22,79.72c-2.48-4.26-6.04-7.58-10.67-9.95c-4.63-2.37-10.08-3.56-16.34-3.56
		c-8.13,0-15.46,1.89-21.98,5.67c-6.52,3.78-11.62,8.96-15.29,15.54c-3.67,6.58-5.5,13.85-5.5,21.81c0,5.65,1.26,10.6,3.77,14.86
		c2.51,4.26,6.07,7.54,10.67,9.82c4.6,2.29,9.92,3.43,15.96,3.43c6.04,0,11.57-1.05,16.6-3.13l-1.02-5.25
		c-4.06,1.92-8.75,2.88-14.06,2.88c-8.02,0-14.29-2.02-18.8-6.06c-4.52-4.04-6.75-9.78-6.69-17.23c0-6.83,1.52-13.07,4.57-18.72
		c3.05-5.65,7.27-10.09,12.66-13.34c5.39-3.25,11.45-4.87,18.17-4.87c8.07,0,14.33,2.03,18.76,6.1c4.43,4.07,6.65,9.8,6.65,17.19
		c0,3.16-0.42,6.37-1.27,9.61c-0.85,3.25-2.1,5.94-3.77,8.09c-1.67,2.15-3.63,3.22-5.89,3.22c-2.99,0-4.49-1.69-4.49-5.08
		c0-0.9,0.08-1.89,0.25-2.96L89,93.42h-5.67l-2.45,15.47c0,0-0.3,1.69-0.42,2.95c-0.09,1,0.06,2.1,0.13,2.51
		c0.37,1.89,1.18,3.44,2.46,4.62c1.52,1.41,3.7,2.12,6.52,2.12c3.73,0,6.99-1.27,9.78-3.81c2.79-2.54,4.93-5.86,6.39-9.95
		c1.47-4.09,2.2-8.37,2.2-12.83C107.95,88.91,106.71,83.98,104.22,79.72z"/>
	<circle class="st1" cx="86.58" cy="87.17" r="3.17"/>
</g>
<g id="Layer_1_copy">
	<g>
		<g>
			<path d="M207.75,127.27c-0.13,0.9-0.19,1.48-0.19,1.73c0,1.35,0.42,2.33,1.25,2.94c0.83,0.61,2.22,0.91,4.14,0.91h6.75
				l-1.64,9.15h-8.67c-4.24,0-7.48-0.85-9.73-2.55c-2.25-1.7-3.37-4.42-3.37-8.14c0-1.41,0.13-2.76,0.38-4.05l5.2-29.39h-6.26
				l1.54-8.96h6.36l2.31-13.2h11.08l-2.31,13.2h12.81l-1.54,8.96h-12.91L207.75,127.27z"/>
			<path d="M250.74,90.75c2.99-1.8,6.31-2.7,9.97-2.7l-2.02,11.37h-2.79c-4.24,0-7.64,1.06-10.21,3.18
				c-2.57,2.12-4.37,5.78-5.4,10.99l-5.01,28.43h-10.99l9.35-53.09h10.99l-1.64,9.35C245.17,95.05,247.75,92.55,250.74,90.75z"/>
			<path d="M305.63,93.64c3.95,3.73,5.93,8.74,5.93,15.03c0,1.48-0.16,3.24-0.48,5.3c-0.26,1.41-0.71,3.15-1.35,5.2h-40.57
				c-0.07,0.45-0.1,1.12-0.1,2.02c0,3.79,1.17,6.81,3.52,9.06c2.35,2.25,5.41,3.37,9.2,3.37c5.97,0,10.57-2.47,13.78-7.42h11.85
				c-2.44,4.88-6.04,8.88-10.79,12c-4.75,3.12-10.25,4.67-16.48,4.67c-4.43,0-8.32-0.87-11.66-2.6c-3.34-1.74-5.94-4.22-7.8-7.47
				c-1.86-3.24-2.79-7.05-2.79-11.42c0-1.86,0.19-3.85,0.58-5.97c0.96-5.46,2.92-10.26,5.88-14.41c2.95-4.14,6.63-7.34,11.03-9.59
				c4.4-2.25,9.2-3.37,14.41-3.37C296.39,88.05,301.68,89.92,305.63,93.64z M300.28,108.77c0-3.53-1.17-6.33-3.52-8.38
				c-2.35-2.06-5.38-3.08-9.11-3.08c-3.92,0-7.45,1.25-10.6,3.76c-3.15,2.51-5.3,5.91-6.46,10.21h29.49
				C300.22,110.12,300.28,109.29,300.28,108.77z"/>
			<path d="M361.64,92.53c3.31,2.99,4.96,7.28,4.96,12.86c0,1.41-0.16,3.18-0.48,5.3l-5.59,31.32h-10.89l5.3-29.68
				c0.26-1.8,0.39-3.08,0.39-3.85c0-3.53-0.98-6.23-2.94-8.09c-1.96-1.86-4.67-2.79-8.14-2.79c-4.18,0-7.69,1.27-10.55,3.81
				c-2.86,2.54-4.67,6.18-5.44,10.94v-0.29l-5.3,29.97h-10.98l9.35-53.09h10.99l-1.06,6.17c2.18-2.18,4.77-3.9,7.76-5.15
				c2.99-1.25,6.09-1.88,9.3-1.88C353.88,88.05,358.33,89.55,361.64,92.53z"/>
			<path d="M383.03,127.27c-0.13,0.9-0.19,1.48-0.19,1.73c0,1.35,0.42,2.33,1.25,2.94c0.83,0.61,2.22,0.91,4.14,0.91h6.75
				l-1.64,9.15h-8.67c-4.24,0-7.48-0.85-9.73-2.55c-2.25-1.7-3.37-4.42-3.37-8.14c0-1.41,0.13-2.76,0.39-4.05l5.2-29.39h-6.26
				l1.54-8.96h6.36l2.31-13.2h11.08l-2.31,13.2h12.81l-1.54,8.96h-12.91L383.03,127.27z"/>
		</g>
		<g>
			<path d="M174.02,61.83c-5.22-8.95-12.69-15.92-22.42-20.9c-9.73-4.98-21.17-7.47-34.33-7.47c-17.08,0-32.47,3.97-46.17,11.92
				c-13.7,7.95-24.4,18.83-32.11,32.65c-7.71,13.82-11.56,29.09-11.56,45.81c0,11.86,2.64,22.27,7.92,31.22
				c5.28,8.95,12.75,15.83,22.42,20.64c9.67,4.8,20.84,7.21,33.54,7.21c12.69,0,24.31-2.2,34.87-6.58l-2.14-11.03
				c-8.54,4.03-18.38,6.05-29.53,6.05c-16.84,0-30.01-4.24-39.49-12.72c-9.49-8.48-14.17-20.55-14.05-36.2
				c0-14.35,3.2-27.46,9.61-39.32c6.4-11.86,15.27-21.2,26.6-28.02c11.32-6.82,24.04-10.23,38.16-10.23
				c16.96,0,30.09,4.27,39.41,12.81c9.31,8.54,13.96,20.58,13.96,36.12c0,6.64-0.89,13.37-2.67,20.19
				c-1.78,6.82-4.42,12.48-7.92,16.99c-3.5,4.51-7.62,6.76-12.36,6.76c-6.29,0-9.43-3.56-9.43-10.67c0-1.9,0.18-3.97,0.53-6.23
				l5.2-30.19h-11.9l-5.15,32.5c0,0-0.64,3.56-0.88,6.2c-0.19,2.11,0.13,4.41,0.27,5.27c0.77,3.98,2.48,7.22,5.16,9.7
				c3.2,2.97,7.77,4.45,13.7,4.45c7.83,0,14.68-2.67,20.55-8c5.87-5.34,10.35-12.3,13.43-20.91c3.08-8.6,4.63-17.58,4.63-26.95
				C181.85,81.13,179.24,70.79,174.02,61.83z"/>
			<g>
				<path d="M61.51,152.61c2.11,1.64,3.05,2.18,5.41,3.45l3.56-19.95c1.64,2.5,3.93,4.59,6.86,6.27c2.93,1.68,6.47,2.52,10.61,2.52
					c4.74,0,9.26-1.2,13.58-3.6c4.31-2.4,7.96-5.76,10.96-10.07c2.99-4.31,4.99-9.2,5.97-14.66c0.39-2.11,0.59-4.11,0.59-6.02
					c0-4.41-0.89-8.26-2.67-11.55c-1.78-3.29-4.28-5.83-7.5-7.6c-3.23-1.78-6.91-2.67-11.06-2.67c-4.15,0-8.01,0.86-11.6,2.57
					c-3.59,1.71-6.57,3.82-8.93,6.32l1.38-8H67.42l-10.3,58.19C58.58,149.66,59.61,151.13,61.51,152.61z M73.94,116.75
					c0.66-3.75,2.01-7.01,4.05-9.77c2.04-2.76,4.46-4.87,7.26-6.32c2.8-1.45,5.61-2.17,8.44-2.17c3.95,0,7.22,1.23,9.82,3.7
					c2.6,2.47,3.9,5.91,3.9,10.32c0,1.45-0.13,2.8-0.39,4.05c-0.66,3.75-2.01,7.04-4.05,9.87c-2.04,2.83-4.46,4.98-7.26,6.47
					c-2.8,1.48-5.64,2.22-8.54,2.22c-3.88,0-7.13-1.28-9.72-3.85c-2.6-2.57-3.9-6.05-3.9-10.46
					C73.54,119.35,73.68,118.01,73.94,116.75z"/>
			</g>
			<circle cx="136.96" cy="77.48" r="6.67"/>
		</g>
	</g>
</g>
</svg>
