<?xml version="1.0" encoding="utf-8"?>
<!-- Generator: Adobe Illustrator 23.1.0, SVG Export Plug-In . SVG Version: 6.00 Build 0)  -->
<svg version="1.1" xmlns="http://www.w3.org/2000/svg" xmlns:xlink="http://www.w3.org/1999/xlink" x="0px" y="0px"
	 viewBox="0 0 209.83 216" style="enable-background:new 0 0 209.83 216;" xml:space="preserve">
<style type="text/css">
	.st0{display:none;}
	.st1{display:inline;fill:#231F20;}
	.st2{font-family:'Poppins-MediumItalic';}
	.st3{font-size:50px;}
	.st4{letter-spacing:-1;}
	.st5{display:inline;}
	.st6{fill:#231F20;}
	.st7{fill:#7D1EE2;}
	.st8{fill:#FFFFFF;}
</style>
<g id="Layer_1" class="st0">
	<text transform="matrix(1 0 0 1 5.2418 120.1736)" class="st1 st2 st3 st4">trent</text>
	<text transform="matrix(1 0 0 1 -320.9195 120.4977)" class="st1" style="font-family:'Poppins-Regular'; font-size:84.6898px;">@</text>
	<g class="st5">
		<path class="st6" d="M-48.65,93.74c1.71-0.81,3.55-1.22,5.52-1.22c1.97,0,3.73,0.42,5.26,1.27c1.54,0.85,2.73,2.05,3.57,3.62
			c0.85,1.57,1.27,3.4,1.27,5.5c0,0.91-0.09,1.86-0.28,2.87c-0.47,2.6-1.42,4.93-2.84,6.98c-1.43,2.05-3.17,3.65-5.22,4.79
			c-2.05,1.14-4.21,1.72-6.46,1.72c-1.97,0-3.66-0.4-5.05-1.2c-1.39-0.8-2.48-1.79-3.27-2.98l-2.82,16.07h-5.36l6.72-38.21h5.36
			l-0.66,3.81C-51.78,95.56-50.36,94.55-48.65,93.74z M-38.57,103.84c0-2.1-0.62-3.74-1.86-4.91c-1.24-1.18-2.8-1.76-4.68-1.76
			c-1.35,0-2.69,0.35-4.02,1.03c-1.33,0.69-2.48,1.69-3.45,3.01c-0.97,1.32-1.61,2.87-1.93,4.65c-0.13,0.6-0.19,1.24-0.19,1.93
			c0,2.1,0.62,3.76,1.86,4.98c1.24,1.22,2.78,1.83,4.63,1.83c1.38,0,2.73-0.35,4.07-1.06c1.33-0.71,2.48-1.73,3.45-3.08
			c0.97-1.35,1.61-2.91,1.93-4.7C-38.63,105.18-38.57,104.53-38.57,103.84z"/>
	</g>
	<text transform="matrix(1 0 0 1 -210.7818 118.8367)" class="st1 st2" style="font-size:47px;">p</text>
	<path class="st1" d="M-6.86,79.72c-2.48-4.26-6.04-7.58-10.67-9.95c-4.63-2.37-10.08-3.56-16.34-3.56
		c-8.13,0-15.46,1.89-21.98,5.67c-6.52,3.78-11.62,8.96-15.29,15.54c-3.67,6.58-5.5,13.85-5.5,21.81c0,5.65,1.26,10.6,3.77,14.86
		c2.51,4.26,6.07,7.54,10.67,9.82c4.6,2.29,9.92,3.43,15.96,3.43c6.04,0,11.57-1.05,16.6-3.13l-1.02-5.25
		c-4.06,1.92-8.75,2.88-14.06,2.88c-8.02,0-14.29-2.02-18.8-6.06c-4.52-4.04-6.75-9.78-6.69-17.23c0-6.83,1.52-13.07,4.57-18.72
		c3.05-5.65,7.27-10.09,12.66-13.34c5.39-3.25,11.45-4.87,18.17-4.87c8.07,0,14.33,2.03,18.76,6.1c4.43,4.07,6.65,9.8,6.65,17.19
		c0,3.16-0.42,6.37-1.27,9.61c-0.85,3.25-2.1,5.94-3.77,8.09c-1.67,2.15-3.63,3.22-5.89,3.22c-2.99,0-4.49-1.69-4.49-5.08
		c0-0.9,0.08-1.89,0.25-2.96l2.48-14.37h-5.67l-2.45,15.47c0,0-0.3,1.69-0.42,2.95c-0.09,1,0.06,2.1,0.13,2.51
		c0.37,1.89,1.18,3.44,2.46,4.62c1.52,1.41,3.7,2.12,6.52,2.12c3.73,0,6.99-1.27,9.78-3.81c2.79-2.54,4.93-5.86,6.39-9.95
		c1.47-4.09,2.2-8.37,2.2-12.83C-3.13,88.91-4.38,83.98-6.86,79.72z"/>
	<circle class="st1" cx="-24.5" cy="87.17" r="3.17"/>
</g>
<g id="Layer_1_copy" class="st0">
	<g class="st5">
		<path class="st6" d="M413.61,127.27c-0.13,0.9-0.19,1.48-0.19,1.73c0,1.35,0.42,2.33,1.25,2.94c0.83,0.61,2.22,0.91,4.14,0.91
			h6.75l-1.64,9.15h-8.67c-4.24,0-7.48-0.85-9.73-2.55c-2.25-1.7-3.37-4.42-3.37-8.14c0-1.41,0.13-2.76,0.38-4.05l5.2-29.39h-6.26
			l1.54-8.96h6.36l2.31-13.2h11.08l-2.31,13.2h12.81l-1.54,8.96h-12.91L413.61,127.27z"/>
		<path class="st6" d="M456.6,90.75c2.99-1.8,6.31-2.7,9.97-2.7l-2.02,11.37h-2.79c-4.24,0-7.64,1.06-10.21,3.18
			c-2.57,2.12-4.37,5.78-5.4,10.99l-5.01,28.43h-10.99l9.35-53.09h10.99l-1.64,9.35C451.02,95.05,453.61,92.55,456.6,90.75z"/>
		<path class="st6" d="M511.48,93.64c3.95,3.73,5.93,8.74,5.93,15.03c0,1.48-0.16,3.24-0.48,5.3c-0.26,1.41-0.71,3.15-1.35,5.2
			h-40.57c-0.07,0.45-0.1,1.12-0.1,2.02c0,3.79,1.17,6.81,3.52,9.06c2.35,2.25,5.41,3.37,9.2,3.37c5.97,0,10.57-2.47,13.78-7.42
			h11.85c-2.44,4.88-6.04,8.88-10.79,12c-4.75,3.12-10.25,4.67-16.48,4.67c-4.43,0-8.32-0.87-11.66-2.6
			c-3.34-1.74-5.94-4.22-7.8-7.47s-2.79-7.05-2.79-11.42c0-1.86,0.19-3.85,0.58-5.97c0.96-5.46,2.92-10.26,5.88-14.41
			c2.95-4.14,6.63-7.34,11.03-9.59c4.4-2.25,9.2-3.37,14.41-3.37C502.25,88.05,507.53,89.92,511.48,93.64z M506.14,108.77
			c0-3.53-1.17-6.33-3.52-8.38c-2.35-2.06-5.38-3.08-9.11-3.08c-3.92,0-7.45,1.25-10.6,3.76c-3.15,2.51-5.3,5.91-6.46,10.21h29.49
			C506.07,110.12,506.14,109.29,506.14,108.77z"/>
		<path class="st6" d="M567.49,92.53c3.31,2.99,4.96,7.28,4.96,12.86c0,1.41-0.16,3.18-0.48,5.3l-5.59,31.32H555.5l5.3-29.68
			c0.26-1.8,0.39-3.08,0.39-3.85c0-3.53-0.98-6.23-2.94-8.09c-1.96-1.86-4.67-2.79-8.14-2.79c-4.18,0-7.69,1.27-10.55,3.81
			c-2.86,2.54-4.67,6.18-5.44,10.94v-0.29l-5.3,29.97h-10.98l9.35-53.09h10.99l-1.06,6.17c2.18-2.18,4.77-3.9,7.76-5.15
			c2.99-1.25,6.09-1.88,9.3-1.88C559.74,88.05,564.18,89.55,567.49,92.53z"/>
		<path class="st6" d="M588.88,127.27c-0.13,0.9-0.19,1.48-0.19,1.73c0,1.35,0.42,2.33,1.25,2.94c0.83,0.61,2.22,0.91,4.14,0.91
			h6.75l-1.64,9.15h-8.67c-4.24,0-7.48-0.85-9.73-2.55c-2.25-1.7-3.37-4.42-3.37-8.14c0-1.41,0.13-2.76,0.39-4.05l5.2-29.39h-6.26
			l1.54-8.96h6.36l2.31-13.2h11.08l-2.31,13.2h12.81L607,97.88h-12.91L588.88,127.27z"/>
	</g>
	<g class="st5">
		<path class="st6" d="M95.63,127.46c-0.12,0.82-0.18,1.35-0.18,1.59c0,1.23,0.38,2.13,1.15,2.69c0.76,0.56,2.03,0.84,3.79,0.84
			h6.17l-1.5,8.37h-7.93c-3.88,0-6.85-0.78-8.9-2.34c-2.06-1.56-3.09-4.04-3.09-7.45c0-1.29,0.12-2.53,0.35-3.7l4.76-26.88h-5.73
			l1.41-8.2h5.82l2.11-12.08h10.14l-2.11,12.08h11.72l-1.41,8.2h-11.81L95.63,127.46z"/>
		<path class="st6" d="M135.87,94.05c2.73-1.64,5.77-2.47,9.12-2.47l-1.85,10.4h-2.56c-3.88,0-6.99,0.97-9.34,2.91
			c-2.35,1.94-4,5.29-4.94,10.05l-4.58,26h-10.05l8.55-48.57h10.05l-1.5,8.55C130.77,97.99,133.14,95.7,135.87,94.05z"/>
		<path class="st6" d="M186.99,96.7c3.61,3.41,5.42,7.99,5.42,13.75c0,1.35-0.15,2.97-0.44,4.85c-0.24,1.29-0.65,2.88-1.23,4.76
			h-37.11c-0.06,0.41-0.09,1.03-0.09,1.85c0,3.47,1.07,6.23,3.22,8.28c2.14,2.06,4.95,3.09,8.42,3.09c5.47,0,9.67-2.26,12.61-6.79
			h10.84c-2.23,4.47-5.52,8.12-9.87,10.97c-4.35,2.85-9.37,4.28-15.07,4.28c-4.05,0-7.61-0.79-10.67-2.38
			c-3.06-1.59-5.44-3.86-7.14-6.83c-1.71-2.97-2.56-6.45-2.56-10.45c0-1.7,0.18-3.53,0.53-5.46c0.88-4.99,2.67-9.39,5.38-13.18
			c2.7-3.79,6.07-6.71,10.09-8.77c4.02-2.06,8.42-3.09,13.18-3.09C178.54,91.58,183.38,93.29,186.99,96.7z M182.1,110.54
			c0-3.23-1.07-5.79-3.22-7.67c-2.15-1.88-4.92-2.82-8.33-2.82c-3.59,0-6.82,1.15-9.7,3.44c-2.88,2.29-4.85,5.41-5.91,9.34h26.97
			C182.04,111.77,182.1,111.01,182.1,110.54z"/>
		<path class="st6" d="M239.05,95.68c3.03,2.73,4.54,6.65,4.54,11.77c0,1.29-0.15,2.91-0.44,4.85l-5.11,28.65h-9.96l4.85-27.15
			c0.23-1.64,0.35-2.82,0.35-3.53c0-3.23-0.9-5.7-2.69-7.4c-1.79-1.7-4.27-2.56-7.45-2.56c-3.82,0-7.04,1.16-9.65,3.48
			c-2.62,2.32-4.27,5.66-4.98,10v-0.26l-4.85,27.41h-10.05l8.55-48.57h10.05l-0.97,5.64c2-2,4.36-3.57,7.09-4.72
			c2.73-1.15,5.57-1.72,8.51-1.72C231.96,91.58,236.03,92.95,239.05,95.68z"/>
		<path class="st6" d="M253.48,103.48c2.67-3.76,5.95-6.68,9.83-8.77c3.88-2.08,7.96-3.13,12.25-3.13c3.17,0,6.17,0.69,8.99,2.07
			c2.82,1.38,4.96,3.22,6.44,5.51l4.14-23.45h10.14l-11.55,65.23h-10.14l1.32-7.32c-2.12,2.41-4.75,4.36-7.89,5.86
			c-3.15,1.5-6.6,2.25-10.36,2.25c-3.7,0-6.99-0.82-9.87-2.47c-2.88-1.64-5.13-3.98-6.74-7.01c-1.62-3.03-2.42-6.51-2.42-10.45
			c0-1.76,0.18-3.55,0.53-5.38C249.02,111.56,250.8,107.25,253.48,103.48z M288.25,113c0-3.94-1.16-7.04-3.48-9.3
			c-2.32-2.26-5.21-3.39-8.68-3.39c-2.59,0-5.11,0.63-7.58,1.89c-2.47,1.26-4.61,3.12-6.44,5.55c-1.82,2.44-3.03,5.33-3.61,8.68
			c-0.24,1.12-0.35,2.32-0.35,3.61c0,4,1.16,7.15,3.48,9.48c2.32,2.32,5.21,3.48,8.68,3.48c2.59,0,5.11-0.65,7.58-1.94
			c2.47-1.29,4.61-3.19,6.44-5.69c1.82-2.5,3.02-5.42,3.61-8.77C288.13,115.5,288.25,114.3,288.25,113z"/>
	</g>
	<g class="st5">
		<path class="st6" d="M62.93,61.83c-5.22-8.95-12.69-15.92-22.42-20.9c-9.73-4.98-21.17-7.47-34.33-7.47
			c-17.08,0-32.47,3.97-46.17,11.92c-13.7,7.95-24.4,18.83-32.11,32.65c-7.71,13.82-11.56,29.09-11.56,45.81
			c0,11.86,2.64,22.27,7.92,31.22c5.28,8.95,12.75,15.83,22.42,20.64c9.67,4.8,20.84,7.21,33.54,7.21c12.69,0,24.31-2.2,34.87-6.58
			l-2.14-11.03c-8.54,4.03-18.38,6.05-29.53,6.05c-16.84,0-30.01-4.24-39.49-12.72c-9.49-8.48-14.17-20.55-14.05-36.2
			c0-14.35,3.2-27.46,9.61-39.32c6.4-11.86,15.27-21.2,26.6-28.02c11.32-6.82,24.04-10.23,38.16-10.23
			c16.96,0,30.09,4.27,39.41,12.81c9.31,8.54,13.96,20.58,13.96,36.12c0,6.64-0.89,13.37-2.67,20.19
			c-1.78,6.82-4.42,12.48-7.92,16.99c-3.5,4.51-7.62,6.76-12.36,6.76c-6.29,0-9.43-3.56-9.43-10.67c0-1.9,0.18-3.97,0.53-6.23
			l5.2-30.19h-11.9l-5.15,32.5c0,0-0.64,3.56-0.88,6.2c-0.19,2.11,0.13,4.41,0.27,5.27c0.77,3.98,2.48,7.22,5.16,9.7
			c3.2,2.97,7.77,4.45,13.7,4.45c7.83,0,14.68-2.67,20.55-8c5.87-5.34,10.35-12.3,13.43-20.91c3.08-8.6,4.63-17.58,4.63-26.95
			C70.76,81.13,68.15,70.79,62.93,61.83z"/>
		<g>
			<path class="st6" d="M-49.57,152.61c2.11,1.64,3.05,2.18,5.41,3.45l3.56-19.95c1.64,2.5,3.93,4.59,6.86,6.27
				c2.93,1.68,6.47,2.52,10.61,2.52c4.74,0,9.26-1.2,13.58-3.6c4.31-2.4,7.96-5.76,10.96-10.07c2.99-4.31,4.99-9.2,5.97-14.66
				c0.39-2.11,0.59-4.11,0.59-6.02c0-4.41-0.89-8.26-2.67-11.55c-1.78-3.29-4.28-5.83-7.5-7.6c-3.23-1.78-6.91-2.67-11.06-2.67
				c-4.15,0-8.01,0.86-11.6,2.57c-3.59,1.71-6.57,3.82-8.93,6.32l1.38-8h-11.26l-10.3,58.19C-52.5,149.66-51.48,151.13-49.57,152.61
				z M-37.14,116.75c0.66-3.75,2.01-7.01,4.05-9.77c2.04-2.76,4.46-4.87,7.26-6.32c2.8-1.45,5.61-2.17,8.44-2.17
				c3.95,0,7.22,1.23,9.82,3.7c2.6,2.47,3.9,5.91,3.9,10.32c0,1.45-0.13,2.8-0.39,4.05c-0.66,3.75-2.01,7.04-4.05,9.87
				c-2.04,2.83-4.46,4.98-7.26,6.47c-2.8,1.48-5.64,2.22-8.54,2.22c-3.88,0-7.13-1.28-9.72-3.85c-2.6-2.57-3.9-6.05-3.9-10.46
				C-37.54,119.35-37.41,118.01-37.14,116.75z"/>
		</g>
		<circle class="st6" cx="25.88" cy="77.48" r="6.67"/>
	</g>
</g>
<g id="Layer_1_copy_2" class="st0">
	<g class="st5">
		<g>
			<path class="st6" d="M89.63,127.46c-0.12,0.82-0.18,1.35-0.18,1.59c0,1.23,0.38,2.13,1.15,2.69c0.76,0.56,2.03,0.84,3.79,0.84
				h6.17l-1.5,8.37h-7.93c-3.88,0-6.85-0.78-8.9-2.34c-2.06-1.56-3.09-4.04-3.09-7.45c0-1.29,0.12-2.53,0.35-3.7l4.76-26.88h-5.73
				l1.41-8.2h5.82l2.11-12.08h10.14l-2.11,12.08h11.72l-1.41,8.2H94.39L89.63,127.46z"/>
			<path class="st6" d="M129.87,94.05c2.73-1.64,5.77-2.47,9.12-2.47l-1.85,10.4h-2.56c-3.88,0-6.99,0.97-9.34,2.91
				c-2.35,1.94-4,5.29-4.94,10.05l-4.58,26h-10.05l8.55-48.57h10.05l-1.5,8.55C124.77,97.99,127.14,95.7,129.87,94.05z"/>
			<path class="st6" d="M180.99,96.7c3.61,3.41,5.42,7.99,5.42,13.75c0,1.35-0.15,2.97-0.44,4.85c-0.24,1.29-0.65,2.88-1.23,4.76
				h-37.11c-0.06,0.41-0.09,1.03-0.09,1.85c0,3.47,1.07,6.23,3.22,8.28c2.14,2.06,4.95,3.09,8.42,3.09c5.47,0,9.67-2.26,12.61-6.79
				h10.84c-2.23,4.47-5.52,8.12-9.87,10.97c-4.35,2.85-9.37,4.28-15.07,4.28c-4.05,0-7.61-0.79-10.67-2.38
				c-3.06-1.59-5.44-3.86-7.14-6.83c-1.71-2.97-2.56-6.45-2.56-10.45c0-1.7,0.18-3.53,0.53-5.46c0.88-4.99,2.67-9.39,5.38-13.18
				c2.7-3.79,6.07-6.71,10.09-8.77c4.02-2.06,8.42-3.09,13.18-3.09C172.54,91.58,177.38,93.29,180.99,96.7z M176.1,110.54
				c0-3.23-1.07-5.79-3.22-7.67c-2.15-1.88-4.92-2.82-8.33-2.82c-3.59,0-6.82,1.15-9.7,3.44c-2.88,2.29-4.85,5.41-5.91,9.34h26.97
				C176.04,111.77,176.1,111.01,176.1,110.54z"/>
			<path class="st6" d="M233.05,95.68c3.03,2.73,4.54,6.65,4.54,11.77c0,1.29-0.15,2.91-0.44,4.85l-5.11,28.65h-9.96l4.85-27.15
				c0.23-1.64,0.35-2.82,0.35-3.53c0-3.23-0.9-5.7-2.69-7.4c-1.79-1.7-4.27-2.56-7.45-2.56c-3.82,0-7.04,1.16-9.65,3.48
				c-2.62,2.32-4.27,5.66-4.98,10v-0.26l-4.85,27.41h-10.05l8.55-48.57h10.05l-0.97,5.64c2-2,4.36-3.57,7.09-4.72
				c2.73-1.15,5.57-1.72,8.51-1.72C225.96,91.58,230.03,92.95,233.05,95.68z"/>
			<path class="st6" d="M247.48,103.48c2.67-3.76,5.95-6.68,9.83-8.77c3.88-2.08,7.96-3.13,12.25-3.13c3.17,0,6.17,0.69,8.99,2.07
				c2.82,1.38,4.96,3.22,6.44,5.51l4.14-23.45h10.14l-11.55,65.23h-10.14l1.32-7.32c-2.12,2.41-4.75,4.36-7.89,5.86
				c-3.15,1.5-6.6,2.25-10.36,2.25c-3.7,0-6.99-0.82-9.87-2.47c-2.88-1.64-5.13-3.98-6.74-7.01c-1.62-3.03-2.42-6.51-2.42-10.45
				c0-1.76,0.18-3.55,0.53-5.38C243.02,111.56,244.8,107.25,247.48,103.48z M282.25,113c0-3.94-1.16-7.04-3.48-9.3
				c-2.32-2.26-5.21-3.39-8.68-3.39c-2.59,0-5.11,0.63-7.58,1.89c-2.47,1.26-4.61,3.12-6.44,5.55c-1.82,2.44-3.03,5.33-3.61,8.68
				c-0.24,1.12-0.35,2.32-0.35,3.61c0,4,1.16,7.15,3.48,9.48c2.32,2.32,5.21,3.48,8.68,3.48c2.59,0,5.11-0.65,7.58-1.94
				c2.47-1.29,4.61-3.19,6.44-5.69c1.82-2.5,3.02-5.42,3.61-8.77C282.13,115.5,282.25,114.3,282.25,113z"/>
		</g>
		<g>
			<path class="st6" d="M56.93,61.83c-5.22-8.95-12.69-15.92-22.42-20.9c-9.73-4.98-21.17-7.47-34.33-7.47
				c-17.08,0-32.47,3.97-46.17,11.92c-13.7,7.95-24.4,18.83-32.11,32.65c-7.71,13.82-11.56,29.09-11.56,45.81
				c0,11.86,2.64,22.27,7.92,31.22c5.28,8.95,12.75,15.83,22.42,20.64c9.67,4.8,20.84,7.21,33.54,7.21c12.69,0,24.31-2.2,34.87-6.58
				l-2.14-11.03c-8.54,4.03-18.38,6.05-29.53,6.05c-16.84,0-30.01-4.24-39.49-12.72c-9.49-8.48-14.17-20.55-14.05-36.2
				c0-14.35,3.2-27.46,9.61-39.32c6.4-11.86,15.27-21.2,26.6-28.02c11.32-6.82,24.04-10.23,38.16-10.23
				c16.96,0,30.09,4.27,39.41,12.81c9.31,8.54,13.96,20.58,13.96,36.12c0,6.64-0.89,13.37-2.67,20.19
				c-1.78,6.82-4.42,12.48-7.92,16.99c-3.5,4.51-7.62,6.76-12.36,6.76c-6.29,0-9.43-3.56-9.43-10.67c0-1.9,0.18-3.97,0.53-6.23
				l5.2-30.19h-11.9l-5.15,32.5c0,0-0.64,3.56-0.88,6.2c-0.19,2.11,0.13,4.41,0.27,5.27c0.77,3.98,2.48,7.22,5.16,9.7
				c3.2,2.97,7.77,4.45,13.7,4.45c7.83,0,14.68-2.67,20.55-8c5.87-5.34,10.35-12.3,13.43-20.91c3.08-8.6,4.63-17.58,4.63-26.95
				C64.76,81.13,62.15,70.79,56.93,61.83z"/>
			<g>
				<path class="st6" d="M-55.57,152.61c2.11,1.64,3.05,2.18,5.41,3.45l3.56-19.95c1.64,2.5,3.93,4.59,6.86,6.27
					c2.93,1.68,6.47,2.52,10.61,2.52c4.74,0,9.26-1.2,13.58-3.6c4.31-2.4,7.96-5.76,10.96-10.07c2.99-4.31,4.99-9.2,5.97-14.66
					c0.39-2.11,0.59-4.11,0.59-6.02c0-4.41-0.89-8.26-2.67-11.55c-1.78-3.29-4.28-5.83-7.5-7.6c-3.23-1.78-6.91-2.67-11.06-2.67
					c-4.15,0-8.01,0.86-11.6,2.57c-3.59,1.71-6.57,3.82-8.93,6.32l1.38-8h-11.26l-10.3,58.19
					C-58.5,149.66-57.48,151.13-55.57,152.61z M-43.14,116.75c0.66-3.75,2.01-7.01,4.05-9.77c2.04-2.76,4.46-4.87,7.26-6.32
					c2.8-1.45,5.61-2.17,8.44-2.17c3.95,0,7.22,1.23,9.82,3.7c2.6,2.47,3.9,5.91,3.9,10.32c0,1.45-0.13,2.8-0.39,4.05
					c-0.66,3.75-2.01,7.04-4.05,9.87c-2.04,2.83-4.46,4.98-7.26,6.47c-2.8,1.48-5.64,2.22-8.54,2.22c-3.88,0-7.13-1.28-9.72-3.85
					c-2.6-2.57-3.9-6.05-3.9-10.46C-43.54,119.35-43.41,118.01-43.14,116.75z"/>
			</g>
			<circle class="st6" cx="19.88" cy="77.48" r="6.67"/>
		</g>
	</g>
</g>
<g id="Layer_1_copy_3">
	<g>
		<path class="st7" d="M184.79,203.67H25.04c-8.72,0-15.8-7.07-15.8-15.8V28.13c0-8.72,7.07-15.8,15.8-15.8h159.74
			c8.72,0,15.8,7.07,15.8,15.8v159.74C200.58,196.6,193.51,203.67,184.79,203.67z"/>
		<g>
			<path class="st8" d="M174.3,61.65c-5.22-8.95-12.69-15.92-22.42-20.9c-9.73-4.98-21.17-7.47-34.33-7.47
				c-17.08,0-32.47,3.97-46.17,11.92c-13.7,7.95-24.4,18.83-32.11,32.65c-7.71,13.82-11.56,29.09-11.56,45.81
				c0,11.86,2.64,22.27,7.92,31.22c5.28,8.95,12.75,15.83,22.42,20.64c9.67,4.8,20.84,7.21,33.54,7.21c12.69,0,24.31-2.2,34.87-6.58
				l-2.14-11.03c-8.54,4.03-18.38,6.05-29.53,6.05c-16.84,0-30.01-4.24-39.49-12.72c-9.49-8.48-14.17-20.55-14.05-36.2
				c0-14.35,3.2-27.46,9.61-39.32c6.4-11.86,15.27-21.2,26.6-28.02c11.32-6.82,24.04-10.23,38.16-10.23
				c16.96,0,30.09,4.27,39.41,12.81c9.31,8.54,13.96,20.58,13.96,36.12c0,6.64-0.89,13.37-2.67,20.19
				c-1.78,6.82-4.42,12.48-7.92,16.99c-3.5,4.51-7.62,6.76-12.36,6.76c-6.29,0-9.43-3.56-9.43-10.67c0-1.9,0.18-3.97,0.53-6.23
				l5.2-30.19h-11.9l-5.15,32.5c0,0-0.64,3.56-0.88,6.2c-0.19,2.11,0.13,4.41,0.27,5.27c0.77,3.98,2.48,7.22,5.16,9.7
				c3.2,2.97,7.77,4.45,13.7,4.45c7.83,0,14.68-2.67,20.55-8c5.87-5.34,10.35-12.3,13.43-20.91c3.08-8.6,4.63-17.58,4.63-26.95
				C182.13,80.96,179.52,70.61,174.3,61.65z"/>
			<g>
				<path class="st8" d="M61.79,152.43c2.11,1.64,3.05,2.18,5.41,3.45l3.56-19.95c1.64,2.5,3.93,4.59,6.86,6.27
					c2.93,1.68,6.47,2.52,10.61,2.52c4.74,0,9.26-1.2,13.58-3.6c4.31-2.4,7.96-5.76,10.96-10.07c2.99-4.31,4.99-9.2,5.97-14.66
					c0.39-2.11,0.59-4.11,0.59-6.02c0-4.41-0.89-8.26-2.67-11.55c-1.78-3.29-4.28-5.83-7.5-7.6c-3.23-1.78-6.91-2.67-11.06-2.67
					c-4.15,0-8.01,0.86-11.6,2.57c-3.59,1.71-6.57,3.82-8.93,6.32l1.38-8H67.7l-10.3,58.19C58.86,149.48,59.89,150.95,61.79,152.43z
					 M74.22,116.58c0.66-3.75,2.01-7.01,4.05-9.77c2.04-2.76,4.46-4.87,7.26-6.32c2.8-1.45,5.61-2.17,8.44-2.17
					c3.95,0,7.22,1.23,9.82,3.7c2.6,2.47,3.9,5.91,3.9,10.32c0,1.45-0.13,2.8-0.39,4.05c-0.66,3.75-2.01,7.04-4.05,9.87
					c-2.04,2.83-4.46,4.98-7.26,6.47c-2.8,1.48-5.64,2.22-8.54,2.22c-3.88,0-7.13-1.28-9.72-3.85c-2.6-2.57-3.9-6.05-3.9-10.46
					C73.82,119.18,73.95,117.83,74.22,116.58z"/>
			</g>
			<circle class="st8" cx="137.24" cy="77.3" r="6.67"/>
		</g>
	</g>
</g>
</svg>
