<?xml version="1.0" encoding="utf-8"?>
<!-- Generator: Adobe Illustrator 23.1.0, SVG Export Plug-In . SVG Version: 6.00 Build 0)  -->
<svg version="1.1" xmlns="http://www.w3.org/2000/svg" xmlns:xlink="http://www.w3.org/1999/xlink" x="0px" y="0px"
	 viewBox="0 0 432 216" style="enable-background:new 0 0 432 216;" xml:space="preserve">
<style type="text/css">
	.st0{display:none;}
	.st1{display:inline;}
	.st2{font-family:'Poppins-MediumItalic';}
	.st3{font-size:50px;}
	.st4{letter-spacing:-1;}
</style>
<g id="Layer_1" class="st0">
	<text transform="matrix(1 0 0 1 116.326 120.1736)" class="st1 st2 st3 st4">trent</text>
	<text transform="matrix(1 0 0 1 -209.8353 120.4977)" class="st1" style="font-family:'Poppins-Regular'; font-size:84.6898px;">@</text>
	<g class="st1">
		<path d="M62.43,93.74c1.71-0.81,3.55-1.22,5.52-1.22c1.97,0,3.73,0.42,5.26,1.27c1.54,0.85,2.73,2.05,3.57,3.62
			c0.85,1.57,1.27,3.4,1.27,5.5c0,0.91-0.09,1.86-0.28,2.87c-0.47,2.6-1.42,4.93-2.84,6.98c-1.43,2.05-3.17,3.65-5.22,4.79
			c-2.05,1.14-4.21,1.72-6.46,1.72c-1.97,0-3.66-0.4-5.05-1.2c-1.39-0.8-2.48-1.79-3.27-2.98l-2.82,16.07h-5.36l6.72-38.21h5.36
			l-0.66,3.81C59.31,95.56,60.72,94.55,62.43,93.74z M72.51,103.84c0-2.1-0.62-3.74-1.86-4.91c-1.24-1.18-2.8-1.76-4.68-1.76
			c-1.35,0-2.69,0.35-4.02,1.03c-1.33,0.69-2.48,1.69-3.45,3.01c-0.97,1.32-1.61,2.87-1.93,4.65c-0.13,0.6-0.19,1.24-0.19,1.93
			c0,2.1,0.62,3.76,1.86,4.98c1.24,1.22,2.78,1.83,4.63,1.83c1.38,0,2.73-0.35,4.07-1.06c1.33-0.71,2.48-1.73,3.45-3.08
			c0.97-1.35,1.61-2.91,1.93-4.7C72.45,105.18,72.51,104.53,72.51,103.84z"/>
	</g>
	<text transform="matrix(1 0 0 1 -99.6976 118.8367)" class="st1 st2" style="font-size:47px;">p</text>
	<path class="st1" d="M104.22,79.72c-2.48-4.26-6.04-7.58-10.67-9.95c-4.63-2.37-10.08-3.56-16.34-3.56
		c-8.13,0-15.46,1.89-21.98,5.67c-6.52,3.78-11.62,8.96-15.29,15.54c-3.67,6.58-5.5,13.85-5.5,21.81c0,5.65,1.26,10.6,3.77,14.86
		c2.51,4.26,6.07,7.54,10.67,9.82c4.6,2.29,9.92,3.43,15.96,3.43c6.04,0,11.57-1.05,16.6-3.13l-1.02-5.25
		c-4.06,1.92-8.75,2.88-14.06,2.88c-8.02,0-14.29-2.02-18.8-6.06c-4.52-4.04-6.75-9.78-6.69-17.23c0-6.83,1.52-13.07,4.57-18.72
		c3.05-5.65,7.27-10.09,12.66-13.34c5.39-3.25,11.45-4.87,18.17-4.87c8.07,0,14.33,2.03,18.76,6.1c4.43,4.07,6.65,9.8,6.65,17.19
		c0,3.16-0.42,6.37-1.27,9.61c-0.85,3.25-2.1,5.94-3.77,8.09c-1.67,2.15-3.63,3.22-5.89,3.22c-2.99,0-4.49-1.69-4.49-5.08
		c0-0.9,0.08-1.89,0.25-2.96L89,93.42h-5.67l-2.45,15.47c0,0-0.3,1.69-0.42,2.95c-0.09,1,0.06,2.1,0.13,2.51
		c0.37,1.89,1.18,3.44,2.46,4.62c1.52,1.41,3.7,2.12,6.52,2.12c3.73,0,6.99-1.27,9.78-3.81c2.79-2.54,4.93-5.86,6.39-9.95
		c1.47-4.09,2.2-8.37,2.2-12.83C107.95,88.91,106.71,83.98,104.22,79.72z"/>
	<circle class="st1" cx="86.58" cy="87.17" r="3.17"/>
</g>
<g id="Layer_1_copy">
	<g>
		<g>
			<path d="M202.29,125.44c-0.13,0.9-0.19,1.48-0.19,1.73c0,1.35,0.42,2.32,1.25,2.93c0.83,0.61,2.21,0.91,4.14,0.91h6.73
				l-1.64,9.14h-8.66c-4.23,0-7.47-0.85-9.71-2.55c-2.25-1.7-3.37-4.41-3.37-8.13c0-1.41,0.13-2.76,0.38-4.04l5.19-29.33h-6.25
				l1.54-8.94h6.35l2.31-13.18h11.06l-2.31,13.18h12.79l-1.54,8.94h-12.89L202.29,125.44z"/>
			<path d="M246.19,88.99c2.98-1.79,6.3-2.69,9.95-2.69l-2.02,11.35h-2.79c-4.23,0-7.63,1.06-10.19,3.17
				c-2.56,2.11-4.36,5.77-5.39,10.96l-5,28.37h-10.96l9.33-52.99h10.96l-1.64,9.33C240.62,93.29,243.21,90.79,246.19,88.99z"/>
			<path d="M301.96,91.88c3.94,3.72,5.91,8.72,5.91,15c0,1.47-0.16,3.24-0.48,5.29c-0.26,1.41-0.71,3.14-1.35,5.19h-40.49
				c-0.06,0.45-0.1,1.12-0.1,2.02c0,3.78,1.17,6.8,3.51,9.04c2.34,2.25,5.4,3.37,9.18,3.37c5.96,0,10.55-2.47,13.75-7.4h11.83
				c-2.44,4.87-6.03,8.86-10.77,11.97c-4.74,3.11-10.23,4.67-16.44,4.67c-4.42,0-8.3-0.87-11.64-2.6c-3.33-1.73-5.93-4.21-7.79-7.45
				c-1.86-3.24-2.79-7.03-2.79-11.4c0-1.86,0.19-3.85,0.58-5.96c0.96-5.45,2.92-10.24,5.87-14.38c2.95-4.13,6.62-7.32,11.01-9.57
				c4.39-2.24,9.18-3.37,14.38-3.37C292.75,86.3,298.02,88.16,301.96,91.88z M296.63,106.98c0-3.53-1.17-6.31-3.51-8.37
				c-2.34-2.05-5.37-3.08-9.09-3.08c-3.91,0-7.44,1.25-10.58,3.75c-3.14,2.5-5.29,5.9-6.44,10.19h29.43
				C296.56,108.33,296.63,107.49,296.63,106.98z"/>
			<path d="M359.86,90.77c3.3,2.98,4.95,7.26,4.95,12.84c0,1.41-0.16,3.17-0.48,5.29l-5.58,31.26h-10.87l5.29-29.62
				c0.26-1.79,0.39-3.08,0.39-3.85c0-3.53-0.98-6.22-2.93-8.08c-1.96-1.86-4.66-2.79-8.13-2.79c-4.17,0-7.68,1.27-10.53,3.8
				c-2.85,2.53-4.66,6.17-5.43,10.91v-0.29l-5.29,29.91h-10.96l9.33-52.99h10.96l-1.06,6.15c2.18-2.18,4.76-3.89,7.74-5.14
				c2.98-1.25,6.07-1.87,9.28-1.87C352.12,86.3,356.56,87.79,359.86,90.77z"/>
			<path d="M385.2,125.44c-0.13,0.9-0.19,1.48-0.19,1.73c0,1.35,0.42,2.32,1.25,2.93c0.83,0.61,2.21,0.91,4.13,0.91h6.73l-1.63,9.14
				h-8.66c-4.23,0-7.47-0.85-9.71-2.55c-2.24-1.7-3.37-4.41-3.37-8.13c0-1.41,0.13-2.76,0.39-4.04l5.19-29.33h-6.25l1.54-8.94h6.35
				l2.31-13.18h11.06l-2.31,13.18h12.79l-1.54,8.94h-12.89L385.2,125.44z"/>
		</g>
		<g>
			<path d="M161.41,62.35c-4.78-8.2-11.62-14.58-20.52-19.14c-8.91-4.56-19.38-6.84-31.44-6.84c-15.64,0-29.73,3.64-42.27,10.91
				c-12.54,7.28-22.34,17.24-29.4,29.89c-7.06,12.65-10.59,26.63-10.59,41.95c0,10.86,2.42,20.39,7.25,28.59
				c4.83,8.2,11.67,14.5,20.52,18.89c8.85,4.4,19.08,6.6,30.71,6.6c11.62,0,22.26-2.01,31.93-6.03l-1.96-10.1
				c-7.82,3.69-16.83,5.54-27.04,5.54c-10.46,0-19.33-1.83-26.7-5.41l4.71-26.85c1.51,2.29,3.6,4.2,6.28,5.74
				c2.68,1.54,5.92,2.3,9.72,2.3c4.34,0,8.48-1.1,12.43-3.3c3.95-2.2,7.29-5.27,10.03-9.22c2.74-3.95,4.57-8.42,5.47-13.42
				c0.36-1.93,0.54-3.77,0.54-5.51c0-4.04-0.81-7.56-2.44-10.58c-1.63-3.01-3.92-5.33-6.87-6.96c-2.95-1.63-6.33-2.44-10.12-2.44
				c-3.8,0-7.34,0.78-10.62,2.35c-3.29,1.57-6.01,3.5-8.18,5.79l1.27-7.32H63.81l-11.15,63.37c-0.07-0.06-0.16-0.12-0.23-0.18
				c-8.69-7.76-12.98-18.81-12.87-33.15c0-13.14,2.93-25.14,8.8-36c5.86-10.86,13.98-19.41,24.35-25.66
				c10.37-6.24,22.02-9.37,34.94-9.37c15.53,0,27.55,3.91,36.08,11.73c8.52,7.82,12.79,18.84,12.79,33.07
				c0,6.08-0.81,12.24-2.44,18.49c-1.63,6.25-4.05,11.43-7.25,15.56c-3.2,4.13-6.98,6.19-11.32,6.19c-5.76,0-8.63-3.26-8.63-9.77
				c0-1.74,0.16-3.64,0.49-5.7l4.76-27.64h-10.9l-4.71,29.76c0,0-0.58,3.26-0.8,5.68c-0.18,1.93,0.12,4.04,0.25,4.83
				c0.7,3.64,2.27,6.61,4.73,8.88c2.93,2.72,7.11,4.07,12.54,4.07c7.17,0,13.44-2.44,18.81-7.33c5.38-4.89,9.47-11.27,12.3-19.14
				c2.82-7.87,4.24-16.1,4.24-24.68C168.58,80.02,166.19,70.55,161.41,62.35z M69.77,112.64c0.6-3.43,1.84-6.42,3.71-8.95
				c1.87-2.53,4.08-4.46,6.64-5.79c2.56-1.33,5.14-1.99,7.73-1.99c3.62,0,6.61,1.13,8.99,3.39c2.38,2.26,3.57,5.41,3.57,9.45
				c0,1.33-0.12,2.56-0.36,3.71c-0.6,3.44-1.84,6.45-3.71,9.04c-1.87,2.59-4.08,4.56-6.64,5.92c-2.56,1.36-5.17,2.03-7.82,2.03
				c-3.56,0-6.52-1.17-8.9-3.53c-2.38-2.35-3.57-5.54-3.57-9.58C69.41,115.02,69.53,113.78,69.77,112.64z"/>
			<circle cx="127.48" cy="76.67" r="6.1"/>
		</g>
	</g>
</g>
</svg>
